<svg width="48" height="48" viewBox="0 0 48 48" fill="none" xmlns="http://www.w3.org/2000/svg">
<path d="M36.5 6H11.5C8.467 6 6 8.468 6 11.5V33.5C6 36.532 8.467 39 11.5 39H17.978L22.985 43.604C23.271 43.868 23.636 44 24 44C24.361 44 24.723 43.87 25.009 43.61L30.08 39H36.5C39.533 39 42 36.532 42 33.5V11.5C42 8.468 39.533 6 36.5 6ZM25.5 31.5C25.5 32.328 24.829 33 24 33C23.171 33 22.5 32.328 22.5 31.5V21.5C22.5 20.672 23.171 20 24 20C24.829 20 25.5 20.672 25.5 21.5V31.5ZM24 17C22.895 17 22 16.105 22 15C22 13.895 22.895 13 24 13C25.105 13 26 13.895 26 15C26 16.105 25.105 17 24 17Z" fill="#A9CE00"/>
</svg>
