<svg width="48" height="48" viewBox="0 0 48 48" fill="none" xmlns="http://www.w3.org/2000/svg">
<path d="M24 6C22.4087 6 20.8826 6.63214 19.7574 7.75736C18.6321 8.88258 18 10.4087 18 12C18 13.5913 18.6321 15.1174 19.7574 16.2426C20.8826 17.3679 22.4087 18 24 18C25.5913 18 27.1174 17.3679 28.2426 16.2426C29.3679 15.1174 30 13.5913 30 12C30 10.4087 29.3679 8.88258 28.2426 7.75736C27.1174 6.63214 25.5913 6 24 6ZM11 8C9.67392 8 8.40215 8.52678 7.46447 9.46447C6.52678 10.4021 6 11.6739 6 13C6 14.3261 6.52678 15.5979 7.46447 16.5355C8.40215 17.4732 9.67392 18 11 18C12.3261 18 13.5979 17.4732 14.5355 16.5355C15.4732 15.5979 16 14.3261 16 13C16 11.6739 15.4732 10.4021 14.5355 9.46447C13.5979 8.52678 12.3261 8 11 8ZM37 8C35.6739 8 34.4021 8.52678 33.4645 9.46447C32.5268 10.4021 32 11.6739 32 13C32 14.3261 32.5268 15.5979 33.4645 16.5355C34.4021 17.4732 35.6739 18 37 18C38.3261 18 39.5979 17.4732 40.5355 16.5355C41.4732 15.5979 42 14.3261 42 13C42 11.6739 41.4732 10.4021 40.5355 9.46447C39.5979 8.52678 38.3261 8 37 8ZM24 42C19.038 42 15 37.962 15 33V23.5C15 21.57 16.57 20 18.5 20H29.5C31.43 20 33 21.57 33 23.5V33C33 37.962 28.962 42 24 42ZM13 33V23.5C13 22.172 13.474 20.952 14.261 20H7.5C5.57 20 4 21.57 4 23.5V30C4 34.41 7.59 38 12 38C12.71 38 13.4 37.91 14.06 37.73C14.06 37.73 14.071 37.725 14.08 37.722C13.395 36.289 13 34.691 13 33ZM35 33V23.5C35 22.172 34.526 20.952 33.739 20H40.5C42.43 20 44 21.57 44 23.5V30C44 34.41 40.41 38 36 38C35.29 38 34.6 37.91 33.94 37.73C33.94 37.73 33.929 37.725 33.92 37.722C34.605 36.289 35 34.691 35 33Z" fill="#A9CE00"/>
</svg>
