<svg width="263" height="62" viewBox="0 0 263 62" fill="none" xmlns="http://www.w3.org/2000/svg">
<g clip-path="url(#clip0_524_39)">
<path fill-rule="evenodd" clip-rule="evenodd" d="M33.8776 16.8214L42.8168 0.634033H60.6792L42.2725 32.8662L33.2516 17.9531L33.8776 16.8214Z" fill="#303030"/>
<path fill-rule="evenodd" clip-rule="evenodd" d="M57.5278 60.6229H43.1685L32.7025 42.6989L41.9896 27.3207L61.4392 60.6229H57.5278Z" fill="#303030"/>
<path fill-rule="evenodd" clip-rule="evenodd" d="M259.875 60.6233H223.802V0.634033H239.702V45.5837H262.121V60.6233H259.875Z" fill="#303030"/>
<path fill-rule="evenodd" clip-rule="evenodd" d="M218.444 60.6233H182.37V0.634033H198.271V45.5837H220.69V60.6233H218.444Z" fill="#303030"/>
<path fill-rule="evenodd" clip-rule="evenodd" d="M173.05 60.6233H159.395V0.634033H175.295V60.6233H173.05Z" fill="#303030"/>
<path fill-rule="evenodd" clip-rule="evenodd" d="M152.259 60.6233H137.447L124.677 39.4708L122.024 42.8203V60.6233H106.124V0.634033H122.024V20.122L136.727 0.634033H156.111L135.571 26.5248L156.234 60.6233H152.259Z" fill="#303030"/>
<path fill-rule="evenodd" clip-rule="evenodd" d="M102.14 42.6789C102.14 48.4342 100.186 52.9919 96.2797 56.3519C92.4784 59.6208 87.5813 61.2568 81.5935 61.2568C77.6236 61.2568 73.8871 60.6378 70.3914 59.3999C66.8892 58.1621 63.6482 56.3074 60.6755 53.8422L59.2337 52.6468L66.4892 39.7137L68.5443 41.3019C70.8114 43.0536 73.0287 44.3596 75.1889 45.2173C77.2693 46.0422 79.3274 46.4562 81.3559 46.4562C82.299 46.4562 83.1043 46.3704 83.7663 46.2014C84.3688 46.0444 84.8781 45.8193 85.2865 45.5293C85.6166 45.2958 85.8562 45.0262 86.0026 44.7278C86.1607 44.4051 86.2403 43.9848 86.2403 43.4708C86.2403 43.0259 86.1607 42.6332 86.0038 42.2988C85.8372 41.9419 85.5668 41.6013 85.1985 41.2807C84.702 40.8549 83.9051 40.3453 82.8104 39.7571C81.636 39.1264 80.1158 38.4078 78.2528 37.6062C77.1049 37.1232 76.0683 36.6742 75.1495 36.2612C74.2351 35.846 73.4055 35.4542 72.6713 35.0869C71.9402 34.7206 71.1892 34.3034 70.4242 33.8394C69.6678 33.385 68.9051 32.8818 68.1349 32.3351C67.3053 31.7407 66.5839 31.1588 65.9791 30.5876C65.3191 29.9665 64.7538 29.3339 64.2911 28.6947C63.8477 28.0822 63.4318 27.3815 63.0488 26.598C62.6755 25.8347 62.3497 25.0299 62.0739 24.1869C61.7842 23.2994 61.5646 22.3512 61.4215 21.3521C61.2781 20.3575 61.2059 19.3265 61.2059 18.2607C61.2059 15.5597 61.6813 13.0956 62.6288 10.8725C63.5867 8.62496 65.0168 6.65665 66.9127 4.97067C68.7895 3.31132 70.9282 2.06405 73.3302 1.2327C75.7032 0.412085 78.3016 0 81.1182 0C84.5768 0 87.8413 0.488394 90.9052 1.46203C93.985 2.44082 96.823 3.90173 99.4136 5.83828L100.876 6.93071L94.5611 20.3606L92.4084 18.9497C90.2474 17.5334 88.2199 16.4781 86.338 15.789C84.5354 15.1309 82.8485 14.8006 81.2774 14.8006C79.7835 14.8006 78.676 15.0852 77.9557 15.6521C77.6565 15.8964 77.4358 16.1555 77.3042 16.4282C77.1759 16.7182 77.1059 17.0651 77.1059 17.4687C77.1059 18.3625 77.4031 19.0367 77.9927 19.4827C78.4914 19.8594 79.3603 20.369 80.5911 21.006C81.896 21.6803 83.5964 22.4913 85.6834 23.431C91.3879 25.9843 95.5064 28.5833 98.0313 31.2245C99.4159 32.6758 100.451 34.3766 101.137 36.3239C101.805 38.2358 102.14 40.3517 102.14 42.6789Z" fill="#303030"/>
<path fill-rule="evenodd" clip-rule="evenodd" d="M24.0954 60.6233H7.54306L20.5105 38.0226H0V23.135H21.2798L8.14133 0.634033H26.4124L43.6235 30.1111L25.3589 60.6233H24.0954Z" fill="white"/>
</g>
<defs>
<clipPath id="clip0_524_39">
<rect width="262.122" height="62" fill="white"/>
</clipPath>
</defs>
</svg>
