<svg width="181" height="43" viewBox="0 0 181 43" fill="none" xmlns="http://www.w3.org/2000/svg">
<g clip-path="url(#clip0_524_87)">
<path fill-rule="evenodd" clip-rule="evenodd" d="M23.3932 11.6664L29.5659 0.439697H41.9001L29.19 22.7943L22.9609 12.4513L23.3932 11.6664Z" fill="#303030"/>
<path fill-rule="evenodd" clip-rule="evenodd" d="M39.7238 42.0449H29.8085L22.5815 29.6138L28.9945 18.9482L42.4247 42.0449H39.7238Z" fill="#303030"/>
<path fill-rule="evenodd" clip-rule="evenodd" d="M179.448 42.0451H154.54V0.439697H165.519V31.6145H180.999V42.0451H179.448Z" fill="#303030"/>
<path fill-rule="evenodd" clip-rule="evenodd" d="M150.84 42.0451H125.93V0.439697H136.909V31.6145H152.39V42.0451H150.84Z" fill="#303030"/>
<path fill-rule="evenodd" clip-rule="evenodd" d="M119.494 42.0451H110.065V0.439697H121.044V42.0451H119.494Z" fill="#303030"/>
<path fill-rule="evenodd" clip-rule="evenodd" d="M105.137 42.0451H94.9098L86.0918 27.3749L84.2596 29.6979V42.0451H73.2805V0.439697H84.2596V13.9556L94.412 0.439697H107.797L93.614 18.3962L107.883 42.0451H105.137Z" fill="#303030"/>
<path fill-rule="evenodd" clip-rule="evenodd" d="M70.5296 29.5999C70.5296 33.5914 69.1801 36.7524 66.4828 39.0828C63.8579 41.3499 60.4763 42.4846 56.3416 42.4846C53.6004 42.4846 51.0203 42.0552 48.6065 41.1967C46.1881 40.3382 43.9501 39.0519 41.8974 37.3422L40.9019 36.5131L45.9119 27.5434L47.331 28.6449C48.8965 29.8598 50.4276 30.7655 51.9192 31.3604C53.3557 31.9325 54.7769 32.2197 56.1776 32.2197C56.8289 32.2197 57.3849 32.1601 57.8421 32.0429C58.2581 31.934 58.6097 31.7779 58.8918 31.5768C59.1197 31.4148 59.2851 31.2278 59.3862 31.0209C59.4954 30.7971 59.5504 30.5056 59.5504 30.1491C59.5504 29.8405 59.4954 29.5682 59.3871 29.3363C59.272 29.0888 59.0853 28.8525 58.831 28.6301C58.4881 28.3349 57.9379 27.9814 57.182 27.5735C56.371 27.1361 55.3213 26.6377 54.0349 26.0817C53.2422 25.7467 52.5264 25.4353 51.892 25.1489C51.2606 24.8609 50.6877 24.5892 50.1807 24.3344C49.6759 24.0804 49.1573 23.7911 48.6291 23.4692C48.1068 23.1541 47.5801 22.8051 47.0483 22.426C46.4754 22.0137 45.9773 21.6101 45.5596 21.214C45.1039 20.7832 44.7136 20.3445 44.3941 19.9011C44.0879 19.4764 43.8007 18.9904 43.5362 18.447C43.2785 17.9176 43.0535 17.3594 42.8631 16.7748C42.663 16.1592 42.5114 15.5017 42.4125 14.8087C42.3136 14.1189 42.2637 13.4038 42.2637 12.6647C42.2637 10.7914 42.592 9.08243 43.2462 7.5406C43.9077 5.98183 44.8952 4.61671 46.2043 3.4474C47.5003 2.29656 48.9771 1.43152 50.6357 0.854939C52.2743 0.285801 54.0685 0 56.0135 0C58.4017 0 60.6559 0.338725 62.7716 1.01399C64.8983 1.69283 66.8579 2.70604 68.6468 4.04913L69.6563 4.80678L65.2961 14.121L63.8095 13.1425C62.3174 12.1602 60.9173 11.4283 59.6178 10.9504C58.3731 10.494 57.2083 10.2649 56.1234 10.2649C55.0918 10.2649 54.3271 10.4623 53.8297 10.8555C53.6231 11.025 53.4707 11.2046 53.3798 11.3938C53.2912 11.5949 53.2429 11.8355 53.2429 12.1154C53.2429 12.7353 53.4481 13.2029 53.8553 13.5122C54.1996 13.7735 54.7996 14.1269 55.6495 14.5686C56.5505 15.0364 57.7247 15.5988 59.1658 16.2505C63.1049 18.0214 65.9488 19.8239 67.6922 21.6557C68.6483 22.6622 69.3632 23.8418 69.8365 25.1924C70.298 26.5183 70.5296 27.9859 70.5296 29.5999Z" fill="#303030"/>
<path fill-rule="evenodd" clip-rule="evenodd" d="M16.6383 42.0451H5.20861L14.1628 26.3705H0V16.0452H14.6941L5.62173 0.439697H18.2382L30.1228 20.8834L17.5108 42.0451H16.6383Z" fill="#A9CE00"/>
</g>
<defs>
<clipPath id="clip0_524_87">
<rect width="181" height="43" fill="white"/>
</clipPath>
</defs>
</svg>
