<svg width="321" height="76" viewBox="0 0 321 76" fill="none" xmlns="http://www.w3.org/2000/svg">
<g clip-path="url(#clip0_524_56)">
<path fill-rule="evenodd" clip-rule="evenodd" d="M41.4872 20.6199L52.4343 0.777344H74.3089L51.7677 40.2878L40.7206 22.0072L41.4872 20.6199Z" fill="#303030"/>
<path fill-rule="evenodd" clip-rule="evenodd" d="M70.4496 74.3118H52.8649L40.0481 52.3405L51.4213 33.4897L75.2396 74.3118H70.4496Z" fill="#303030"/>
<path fill-rule="evenodd" clip-rule="evenodd" d="M318.248 74.3125H274.073V0.777344H293.544V55.877H320.999V74.3125H318.248Z" fill="#303030"/>
<path fill-rule="evenodd" clip-rule="evenodd" d="M267.511 74.3125H223.334V0.777344H242.806V55.877H270.262V74.3125H267.511Z" fill="#303030"/>
<path fill-rule="evenodd" clip-rule="evenodd" d="M211.92 74.3125H195.199V0.777344H214.67V74.3125H211.92Z" fill="#303030"/>
<path fill-rule="evenodd" clip-rule="evenodd" d="M186.459 74.3125H168.321L152.682 48.3837L149.433 52.4896V74.3125H129.962V0.777344H149.433V24.6658L167.438 0.777344H191.176L166.023 32.5144L191.328 74.3125H186.459Z" fill="#303030"/>
<path fill-rule="evenodd" clip-rule="evenodd" d="M125.083 52.3161C125.083 59.3709 122.69 64.9578 117.906 69.0766C113.251 73.0835 107.254 75.089 99.9209 75.089C95.0593 75.089 90.4835 74.3302 86.2026 72.8128C81.9138 71.2955 77.9448 69.022 74.3043 66.0002L72.5387 64.5348L81.424 48.6814L83.9406 50.6281C86.717 52.7754 89.4323 54.3762 92.0777 55.4277C94.6254 56.4388 97.1458 56.9464 99.6299 56.9464C100.785 56.9464 101.771 56.8411 102.582 56.634C103.32 56.4415 103.943 56.1656 104.443 55.8102C104.848 55.5239 105.141 55.1934 105.32 54.8276C105.514 54.4321 105.611 53.9169 105.611 53.2868C105.611 52.7414 105.514 52.2601 105.322 51.8501C105.118 51.4127 104.787 50.9951 104.336 50.6021C103.728 50.0802 102.752 49.4555 101.411 48.7346C99.973 47.9614 98.1113 47.0805 95.8299 46.0979C94.424 45.5059 93.1546 44.9555 92.0295 44.4492C90.9097 43.9403 89.8937 43.46 88.9946 43.0097C88.0993 42.5607 87.1797 42.0493 86.2428 41.4805C85.3165 40.9235 84.3824 40.3068 83.4393 39.6366C82.4233 38.9079 81.5398 38.1947 80.7992 37.4945C79.991 36.7331 79.2987 35.9576 78.7321 35.1741C78.189 34.4233 77.6798 33.5644 77.2107 32.604C76.7536 31.6683 76.3547 30.6818 76.0169 29.6485C75.662 28.5605 75.3931 27.3983 75.2179 26.1735C75.0424 24.9543 74.9539 23.6905 74.9539 22.384C74.9539 19.0732 75.5361 16.0527 76.6964 13.3276C77.8695 10.5725 79.6208 8.15977 81.9425 6.09308C84.2409 4.05904 86.86 2.53013 89.8015 1.51106C92.7076 0.505137 95.8896 0 99.3388 0C103.574 0 107.572 0.598677 111.324 1.79217C115.096 2.99197 118.571 4.78277 121.744 7.1566L123.534 8.4957L115.801 24.9581L113.165 23.2287C110.519 21.4925 108.036 20.1989 105.731 19.3543C103.524 18.5475 101.458 18.1427 99.5338 18.1427C97.7044 18.1427 96.3481 18.4915 95.466 19.1865C95.0996 19.486 94.8294 19.8036 94.6681 20.1378C94.511 20.4933 94.4254 20.9186 94.4254 21.4133C94.4254 22.5089 94.7893 23.3354 95.5114 23.882C96.122 24.3438 97.1861 24.9685 98.6933 25.7492C100.291 26.5759 102.374 27.57 104.929 28.7219C111.915 31.8517 116.959 35.0376 120.051 38.2752C121.747 40.0542 123.014 42.1391 123.854 44.5261C124.672 46.8696 125.083 49.4634 125.083 52.3161Z" fill="#303030"/>
<path fill-rule="evenodd" clip-rule="evenodd" d="M29.5076 74.3125H9.23737L25.1175 46.6085H0V28.3591H26.0597L9.97003 0.777344H32.3451L53.4221 36.9105L31.055 74.3125H29.5076Z" fill="#A9CE00"/>
</g>
<defs>
<clipPath id="clip0_524_56">
<rect width="321" height="76" fill="white"/>
</clipPath>
</defs>
</svg>
