<svg width="67" height="67" viewBox="0 0 67 67" fill="none" xmlns="http://www.w3.org/2000/svg">
<path d="M33.4159 5.56934C18.0613 5.56934 5.56932 18.0613 5.56932 33.4159C5.56932 48.7706 18.0613 61.2626 33.4159 61.2626C48.7705 61.2626 61.2625 48.7706 61.2625 33.4159C61.2625 18.0613 48.7705 5.56934 33.4159 5.56934ZM33.4159 13.9233C44.1647 13.9233 52.9086 22.6672 52.9086 33.4159V35.5044C52.9086 39.726 49.4737 43.1623 45.2507 43.1623C42.7961 43.1623 40.6103 41.9944 39.2082 40.1927C37.5625 42.0194 35.2649 43.1623 32.7198 43.1623C27.7297 43.1623 23.6696 38.7889 23.6696 33.4159C23.6696 28.0429 27.7297 23.6696 32.7198 23.6696C34.5423 23.6696 36.2379 24.258 37.6609 25.2605C37.8851 24.3499 38.6998 23.6696 39.6814 23.6696C40.8357 23.6696 41.7699 24.6053 41.7699 25.7581V35.5044C41.7699 37.4245 43.3321 38.9853 45.2507 38.9853C47.1694 38.9853 48.7316 37.4245 48.7316 35.5044V33.4159C48.7316 24.9715 41.8604 18.1003 33.4159 18.1003C24.9714 18.1003 18.1003 24.9715 18.1003 33.4159C18.1003 41.8604 24.9714 48.7316 33.4159 48.7316C35.2691 48.7316 37.0809 48.4054 38.7976 47.7608C39.8739 47.3528 41.0833 47.904 41.4871 48.9845C41.8923 50.0635 41.3451 51.2661 40.2661 51.6712C38.0773 52.4913 35.7718 52.9086 33.4159 52.9086C22.6671 52.9086 13.9233 44.1647 13.9233 33.4159C13.9233 22.6672 22.6671 13.9233 33.4159 13.9233ZM32.7198 27.8466C31.4273 27.8466 30.1878 28.4334 29.2739 29.4778C28.36 30.5223 27.8466 31.9389 27.8466 33.4159C27.8466 34.893 28.36 36.3096 29.2739 37.354C30.1878 38.3985 31.4273 38.9853 32.7198 38.9853C34.0122 38.9853 35.2517 38.3985 36.1656 37.354C37.0795 36.3096 37.5929 34.893 37.5929 33.4159C37.5929 31.9389 37.0795 30.5223 36.1656 29.4778C35.2517 28.4334 34.0122 27.8466 32.7198 27.8466Z" fill="#16A3B9"/>
</svg>
