<svg width="67" height="68" viewBox="0 0 67 68" fill="none" xmlns="http://www.w3.org/2000/svg">
<path d="M50.8201 9.10889H16.0118C11.7903 9.10889 8.35399 12.5452 8.35399 16.7667V51.575C8.35399 55.7965 11.7903 59.2328 16.0118 59.2328H50.8201C55.0416 59.2328 58.4779 55.7965 58.4779 51.575V16.7667C58.4779 12.5452 55.0416 9.10889 50.8201 9.10889ZM41.5304 38.8616C37.6918 45.439 33.4201 49.4169 28.8352 50.6825C27.0043 51.1879 25.0077 50.6978 23.6265 49.4043L22.0155 47.895C20.7012 46.6642 20.509 44.6412 21.5686 43.189L23.8966 39.9991C24.8058 38.753 26.4139 38.2156 27.8995 38.6667L31.553 39.7722C32.5067 40.052 33.3338 39.3252 33.6471 39.051C34.4045 38.3868 35.2357 37.2827 36.1185 35.7706C38.012 32.5251 37.8742 31.3068 37.8296 30.9072C37.7809 30.4798 37.579 30.0816 37.2602 29.7878L34.5437 27.283C33.4076 26.2346 33.072 24.5888 33.7097 23.1867L35.3485 19.5806C36.0934 17.9418 37.9689 17.0981 39.7051 17.616L41.8256 18.2481C43.6356 18.7884 45.053 20.2475 45.5264 22.0576C46.7183 26.6216 45.3747 32.2759 41.5304 38.8616Z" fill="#16A3B9"/>
</svg>
