<svg width="63" height="63" viewBox="0 0 63 63" fill="none" xmlns="http://www.w3.org/2000/svg">
<path d="M31.5 5.25C17.0231 5.25 5.25 17.0231 5.25 31.5C5.25 35.6869 6.26063 39.8212 8.17688 43.5356L5.36813 53.5894C5.05313 54.7313 5.38125 55.9519 6.20812 56.7919C6.83812 57.4088 7.67813 57.75 8.53125 57.75C8.83313 57.75 9.12188 57.7106 9.41062 57.6319L19.4644 54.8231C23.1787 56.7394 27.3263 57.75 31.5 57.75C45.9769 57.75 57.75 45.9769 57.75 31.5C57.75 17.0231 45.9769 5.25 31.5 5.25ZM45.0975 41.1731C44.52 42.7875 41.685 44.3494 40.4119 44.4675C39.1388 44.5856 37.9444 45.045 32.0906 42.735C25.0294 39.9525 20.5669 32.7206 20.2256 32.2481C19.8713 31.7887 17.3906 28.4944 17.3906 25.0688C17.3906 21.6562 19.1888 19.9762 19.8188 19.2806C20.4619 18.585 21.21 18.4144 21.6694 18.4144C22.1419 18.4144 22.6013 18.4144 23.0081 18.4275C23.4938 18.4537 24.045 18.48 24.57 19.635C25.1869 21 26.5387 24.4387 26.7094 24.7931C26.88 25.1344 26.9981 25.5413 26.7619 26.0006C26.5387 26.46 26.4206 26.7488 26.0662 27.1556C25.725 27.5625 25.3444 28.0613 25.0294 28.3763C24.6881 28.7175 24.3206 29.0981 24.7275 29.7938C25.1344 30.4894 26.5256 32.76 28.5863 34.5975C31.2375 36.96 33.4688 37.695 34.1644 38.0494C34.86 38.3906 35.2669 38.3381 35.6737 37.8656C36.0806 37.4062 37.4062 35.8444 37.8787 35.1488C38.3381 34.4531 38.7975 34.5713 39.4406 34.8075C40.0706 35.0306 43.4831 36.7106 44.1787 37.065C44.8744 37.4062 45.3337 37.5769 45.5044 37.8656C45.675 38.1544 45.675 39.5456 45.0975 41.1731Z" fill="#16A3B9"/>
</svg>
